<?xml version="1.0" standalone="no"?><!DOCTYPE svg PUBLIC "-//W3C//DTD SVG 1.1//EN" "http://www.w3.org/Graphics/SVG/1.1/DTD/svg11.dtd"><svg t="1726206004737" class="icon" viewBox="0 0 1024 1024" version="1.1" xmlns="http://www.w3.org/2000/svg" p-id="7568" xmlns:xlink="http://www.w3.org/1999/xlink" width="200" height="200"><path d="M798.224 680.77h-86.128c0-110.508-89.586-200.094-200.094-200.094S311.908 570.26 311.908 680.77H225.78c0-158.064 128.158-286.222 286.222-286.222s286.222 128.156 286.222 286.222z" fill="#54B88B" p-id="7569"></path><path d="M884.352 680.77h-86.128c0-158.064-128.158-286.222-286.222-286.222S225.78 522.706 225.78 680.77H139.652c0-205.644 166.708-372.35 372.35-372.35s372.35 166.706 372.35 372.35z" fill="#FBDD56" p-id="7570"></path><path d="M970.48 680.77h-86.128c0-205.644-166.708-372.35-372.35-372.35S139.652 475.126 139.652 680.77H53.522c0-253.2 205.28-458.478 458.478-458.478s458.48 205.278 458.48 458.478z" fill="#FF6E6E" p-id="7571"></path><path d="M190.902 519.83c-51.072 0-98.382 25.006-127.426 65.608a460.212 460.212 0 0 0-9.954 95.332h258.384c0-28.224 5.856-55.078 16.4-79.43-27.284-49.88-79.964-81.51-137.404-81.51z m769.624 65.608c-29.046-40.602-76.356-65.608-127.426-65.608-57.438 0-110.116 31.632-137.404 81.51 10.544 24.352 16.4 51.204 16.4 79.43H970.48c0-32.694-3.448-64.576-9.954-95.332z" opacity=".1" p-id="7572"></path><path d="M314.894 642.398c-7.806-1.302-14.398-6.59-17.648-13.806-18.256-40.538-59-68.762-106.344-68.762s-88.088 28.224-106.344 68.762c-3.25 7.216-9.842 12.502-17.648 13.806C29.384 648.66 0.674 680.968 0.012 720.114c-0.76 44.87 36.898 81.594 81.774 81.594h218.23c44.876 0 82.534-36.724 81.774-81.594-0.66-39.146-29.368-71.454-66.896-77.716zM957.092 642.398c-7.806-1.302-14.398-6.59-17.648-13.806-18.256-40.538-59-68.762-106.342-68.762-47.344 0-88.088 28.224-106.344 68.762-3.25 7.216-9.842 12.502-17.648 13.806-37.526 6.262-66.236 38.57-66.898 77.716-0.76 44.87 36.898 81.594 81.774 81.594h218.23c44.878 0 82.534-36.724 81.774-81.594-0.662-39.146-29.372-71.454-66.898-77.716z" fill="#C9F4FF" p-id="7573"></path><path d="M175.234 560.894c-40.534 5.448-74.468 31.712-90.674 67.698-3.25 7.216-9.842 12.502-17.648 13.806C29.386 648.66 0.676 680.968 0.014 720.114c-0.76 44.87 36.898 81.594 81.774 81.594h136.856C78.32 755.31 109.322 600.3 175.234 560.894zM817.43 560.894c-40.534 5.448-74.468 31.712-90.674 67.698-3.25 7.216-9.842 12.502-17.648 13.806-37.526 6.262-66.236 38.57-66.898 77.716-0.76 44.87 36.898 81.594 81.774 81.594h136.856c-140.324-46.398-109.32-201.408-43.41-240.814z" fill="#AEEAF9" p-id="7574"></path></svg>